<svg height="512pt" viewBox="0 0 512 512" width="512pt" xmlns="http://www.w3.org/2000/svg" xmlns:xlink="http://www.w3.org/1999/xlink"><linearGradient id="a" gradientUnits="userSpaceOnUse" x1="0" x2="512" y1="256" y2="256"><stop offset="0" stop-color="#00f38d"/><stop offset="1" stop-color="#009eff"/></linearGradient><path d="m512 256c0 141.386719-114.613281 256-256 256s-256-114.613281-256-256 114.613281-256 256-256 256 114.613281 256 256zm0 0" fill="url(#a)"/><g fill="#fff"><path d="m384.085938 320.042969v-143.285157c0-36.617187-29.785157-66.40625-66.402344-66.40625h-26.0625c-7.109375-11.914062-20.125-19.917968-34.980469-19.917968-14.851563 0-27.867187 8.003906-34.976563 19.917968h-27.347656c-36.617187 0-66.40625 29.789063-66.40625 66.40625v143.285157c0 22.445312 18.261719 40.703125 40.703125 40.703125h15.546875l-54.835937 60.820312h34.605469l14.285156-15.84375h156.53125l14.285156 15.84375h34.605469l-54.835938-60.820312h14.585938c22.441406 0 40.699219-18.257813 40.699219-40.703125zm-30-143.285157v56.964844h-82.445313v-64.761718c12.257813-4.878907 21.601563-15.542969 24.636719-28.605469h21.40625c20.074218-.003907 36.402344 16.328125 36.402344 36.402343zm-97.445313-56.324218c5.902344 0 10.703125 4.800781 10.703125 10.703125 0 5.902343-4.800781 10.703125-10.703125 10.703125-5.898437 0-10.699219-4.800782-10.699219-10.703125 0-5.902344 4.800782-10.703125 10.699219-10.703125zm-62.324219 19.917968h22.691406c3.035157 13.066407 12.375 23.730469 24.632813 28.609376v64.761718h-83.726563v-56.964844c0-20.074218 16.328126-36.40625 36.402344-36.40625zm-36.402344 179.691407v-56.320313h196.175782v56.320313c0 5.902343-4.804688 10.703125-10.703125 10.703125h-174.773438c-5.898437 0-10.699219-4.800782-10.699219-10.703125zm149.785157 55.679687h-102.433594l13.503906-14.976562h75.425781zm0 0"/><path d="m200.742188 300.765625c0 7.097656-5.753907 12.851563-12.851563 12.851563s-12.851563-5.753907-12.851563-12.851563 5.753907-12.851563 12.851563-12.851563 12.851563 5.753907 12.851563 12.851563zm0 0"/><path d="m336.316406 300.765625c0 7.097656-5.753906 12.851563-12.847656 12.851563-7.097656 0-12.851562-5.753907-12.851562-12.851563s5.753906-12.851563 12.851562-12.851563c7.09375 0 12.847656 5.753907 12.847656 12.851563zm0 0"/></g></svg>